# xmcd CD database file
#
# Track frame offsets:
#	150
#	18115
#	45909
#	70422
#	89132
#	121550
#	138316
#	165474
#	181639
#	199015
#	218442
#	239266
#	262041
#	290057
#	310945
#
# Disc length: 4565 seconds
#
# Revision: 0
# Processed by: cddbd v1.5.2PL0 Copyright (c) Steve Scherf et al.
# Submitted via: CDex 1.51
#
DISCID=c911d30f
DTITLE=Jan Spaleny - Panenko Skakava
DYEAR=2012
DGENRE=Blues
TTITLE0=Hotel Stistko Blues
TTITLE1=Suzanne
TTITLE2=Dnes Opoustim Pristav (Shiver Me Timbers)
TTITLE3=Jsi Trochu Povadla
TTITLE4=Zavolej Jen Moje Jmeno (You Got A Friend)
TTITLE5=Cinovy Vojacek (Tin Soldier Man)
TTITLE6=Znam Te Malo
TTITLE7=Sto Tisic Modrych Slunci
TTITLE8=Loudani
TTITLE9=Bojler Blues
TTITLE10=V Ulicich Je Dest (Everytime It Rains)
TTITLE11=Skandal
TTITLE12=Asi V Tom Bude Nejakej Hacek
TTITLE13=Mezi Brehy
TTITLE14=Verim V Nas
EXTD=YEAR: 2012
EXTT0=
EXTT1=
EXTT2=
EXTT3=
EXTT4=
EXTT5=
EXTT6=
EXTT7=
EXTT8=
EXTT9=
EXTT10=
EXTT11=
EXTT12=
EXTT13=
EXTT14=
PLAYORDER=
